<svg xmlns="http://www.w3.org/2000/svg"><symbol id="arrow-long-right" viewBox="0 0 336.89 120.88"><defs><style>.cls-1{fill:#000;stroke-width:0}</style></defs><g id="Layer_2-2"><path id="Layer_1-2" d="M302.79 50.83c-7.93-6.58-15.85-13.16-23.78-19.74-5.95-4.94-11.92-9.85-17.85-14.81-4.66-3.89-5.5-9.08-2.19-13.1 3.35-4.07 8.46-4.28 13.23-.34 20.09 16.6 40.17 33.22 60.21 49.88 5.92 4.93 5.98 10.49.13 15.36-20.13 16.75-40.31 33.44-60.5 50.12-4.64 3.83-9.92 3.5-13.21-.65-3.15-3.97-2.31-9.07 2.18-12.81 13.91-11.55 27.83-23.08 41.7-35.47H12.36c-1.74 0-3.51.02-5.21-.3C2.9 68.16.06 64.71 0 60.58c-.06-4.24 2.91-7.88 7.28-8.67 1.7-.31 3.47-.27 5.21-.27h289.96c.11-.27.23-.53.34-.8z" class="cls-1"/></g></symbol></svg>